<svg width="35" height="35" viewBox="0 0 35 35" fill="none" xmlns="http://www.w3.org/2000/svg">
<path d="M22.9219 25.5358L24.9737 16.1921C25.1218 15.5174 24.6264 14.875 23.9579 14.875H6.91007L6.51224 12.8621C6.41311 12.3603 5.98655 12 5.49171 12H1.04167C0.466363 12 0 12.4827 0 13.0781V13.7969C0 14.3923 0.466363 14.875 1.04167 14.875H4.07478L7.12374 30.3027C6.39432 30.7369 5.90278 31.551 5.90278 32.4844C5.90278 33.8737 6.99097 35 8.33334 35C9.6757 35 10.7639 33.8737 10.7639 32.4844C10.7639 31.7803 10.4841 31.1441 10.0337 30.6875H19.1329C18.6826 31.1441 18.4028 31.7803 18.4028 32.4844C18.4028 33.8737 19.491 35 20.8333 35C22.1757 35 23.2639 33.8737 23.2639 32.4844C23.2639 31.4884 22.7045 30.6277 21.8933 30.2201L22.1327 29.1296C22.2809 28.4549 21.7854 27.8125 21.117 27.8125H9.46689L9.18281 26.375H21.9061C22.3925 26.375 22.8141 26.0267 22.9219 25.5358Z" fill="black"/>
<circle cx="25" cy="13" r="10" fill="#AD0818"/>
<path d="M20.608 17C20.608 16.52 20.6453 16.088 20.72 15.704C20.7947 15.32 20.9227 14.9627 21.104 14.632C21.296 14.3013 21.552 13.992 21.872 13.704C22.2027 13.4053 22.6187 13.1173 23.12 12.84C23.5573 12.6053 23.9413 12.4027 24.272 12.232C24.6027 12.0507 24.88 11.8853 25.104 11.736C25.3387 11.5867 25.5147 11.4373 25.632 11.288C25.7493 11.128 25.808 10.9467 25.808 10.744C25.808 10.5307 25.7493 10.3387 25.632 10.168C25.5147 9.98667 25.3493 9.84267 25.136 9.736C24.9227 9.62933 24.656 9.576 24.336 9.576C24.08 9.576 23.84 9.608 23.616 9.672C23.4027 9.736 23.2 9.82667 23.008 9.944C22.8267 10.0613 22.656 10.1947 22.496 10.344C22.336 10.4827 22.192 10.632 22.064 10.792L20.704 9.224C20.8533 9.07467 21.0507 8.91467 21.296 8.744C21.552 8.56267 21.8507 8.39733 22.192 8.248C22.544 8.088 22.928 7.96 23.344 7.864C23.7707 7.75733 24.224 7.704 24.704 7.704C25.4293 7.704 26.048 7.82133 26.56 8.056C27.072 8.28 27.4613 8.59467 27.728 9C28.0053 9.40533 28.144 9.88 28.144 10.424C28.144 10.7973 28.0747 11.128 27.936 11.416C27.7973 11.704 27.6213 11.96 27.408 12.184C27.1947 12.3973 26.96 12.5893 26.704 12.76C26.4587 12.9307 26.2187 13.08 25.984 13.208C25.6533 13.3787 25.3547 13.5387 25.088 13.688C24.8213 13.8267 24.5867 13.9707 24.384 14.12C24.1813 14.2587 24 14.4027 23.84 14.552C23.6907 14.7013 23.5573 14.872 23.44 15.064H28.32V17H20.608Z" fill="white"/>
</svg>
