<svg width="239" height="55" viewBox="0 0 239 55" fill="none" xmlns="http://www.w3.org/2000/svg">
<path d="M26.494 14.748V18.31H19.058V22.158H24.622V25.616H19.058V33H14.612V14.748H26.494ZM40.1928 29.776H33.3808L32.2888 33H27.6348L34.2388 14.748H39.3868L45.9908 33H41.2848L40.1928 29.776ZM39.0488 26.344L36.7868 19.662L34.5508 26.344H39.0488ZM54.6047 33.182C53.27 33.182 52.074 32.9653 51.0167 32.532C49.9593 32.0987 49.11 31.4573 48.4687 30.608C47.8447 29.7587 47.5153 28.736 47.4807 27.54H52.2127C52.282 28.216 52.516 28.736 52.9147 29.1C53.3133 29.4467 53.8333 29.62 54.4747 29.62C55.1333 29.62 55.6533 29.4727 56.0347 29.178C56.416 28.866 56.6067 28.4413 56.6067 27.904C56.6067 27.4533 56.4507 27.0807 56.1387 26.786C55.844 26.4913 55.4713 26.2487 55.0207 26.058C54.5873 25.8673 53.9633 25.6507 53.1487 25.408C51.97 25.044 51.008 24.68 50.2627 24.316C49.5173 23.952 48.876 23.4147 48.3387 22.704C47.8013 21.9933 47.5327 21.066 47.5327 19.922C47.5327 18.2233 48.148 16.8973 49.3787 15.944C50.6093 14.9733 52.2127 14.488 54.1887 14.488C56.1993 14.488 57.82 14.9733 59.0507 15.944C60.2813 16.8973 60.94 18.232 61.0267 19.948H56.2167C56.182 19.3587 55.9653 18.8993 55.5667 18.57C55.168 18.2233 54.6567 18.05 54.0327 18.05C53.4953 18.05 53.062 18.1973 52.7327 18.492C52.4033 18.7693 52.2387 19.1767 52.2387 19.714C52.2387 20.3033 52.516 20.7627 53.0707 21.092C53.6253 21.4213 54.492 21.7767 55.6707 22.158C56.8493 22.5567 57.8027 22.938 58.5307 23.302C59.276 23.666 59.9173 24.1947 60.4547 24.888C60.992 25.5813 61.2607 26.474 61.2607 27.566C61.2607 28.606 60.992 29.5507 60.4547 30.4C59.9347 31.2493 59.172 31.9253 58.1667 32.428C57.1613 32.9307 55.974 33.182 54.6047 33.182ZM79.8048 14.748V33H75.3588V25.486H68.4428V33H63.9968V14.748H68.4428V21.898H75.3588V14.748H79.8048ZM87.4603 14.748V33H83.0143V14.748H87.4603ZM99.3143 33.182C97.5983 33.182 96.021 32.7833 94.5823 31.986C93.161 31.1887 92.0256 30.0793 91.1763 28.658C90.3443 27.2193 89.9283 25.6073 89.9283 23.822C89.9283 22.0367 90.3443 20.4333 91.1763 19.012C92.0256 17.5907 93.161 16.4813 94.5823 15.684C96.021 14.8867 97.5983 14.488 99.3143 14.488C101.03 14.488 102.599 14.8867 104.02 15.684C105.459 16.4813 106.586 17.5907 107.4 19.012C108.232 20.4333 108.648 22.0367 108.648 23.822C108.648 25.6073 108.232 27.2193 107.4 28.658C106.568 30.0793 105.442 31.1887 104.02 31.986C102.599 32.7833 101.03 33.182 99.3143 33.182ZM99.3143 29.126C100.77 29.126 101.932 28.6407 102.798 27.67C103.682 26.6993 104.124 25.4167 104.124 23.822C104.124 22.21 103.682 20.9273 102.798 19.974C101.932 19.0033 100.77 18.518 99.3143 18.518C97.841 18.518 96.6623 18.9947 95.7783 19.948C94.9116 20.9013 94.4783 22.1927 94.4783 23.822C94.4783 25.434 94.9116 26.7253 95.7783 27.696C96.6623 28.6493 97.841 29.126 99.3143 29.126ZM127.45 33H123.004L115.568 21.742V33H111.122V14.748H115.568L123.004 26.058V14.748H127.45V33Z" fill="#B30E1D"/>
<path d="M161.672 16.152L157.28 33H152.312L149.624 21.912L146.84 33H141.872L137.6 16.152H141.992L144.416 28.416L147.416 16.152H151.928L154.808 28.416L157.256 16.152H161.672ZM171.698 33.168C170.114 33.168 168.658 32.8 167.33 32.064C166.018 31.328 164.97 30.304 164.186 28.992C163.418 27.664 163.034 26.176 163.034 24.528C163.034 22.88 163.418 21.4 164.186 20.088C164.97 18.776 166.018 17.752 167.33 17.016C168.658 16.28 170.114 15.912 171.698 15.912C173.282 15.912 174.73 16.28 176.042 17.016C177.37 17.752 178.41 18.776 179.162 20.088C179.93 21.4 180.314 22.88 180.314 24.528C180.314 26.176 179.93 27.664 179.162 28.992C178.394 30.304 177.354 31.328 176.042 32.064C174.73 32.8 173.282 33.168 171.698 33.168ZM171.698 29.424C173.042 29.424 174.114 28.976 174.914 28.08C175.73 27.184 176.138 26 176.138 24.528C176.138 23.04 175.73 21.856 174.914 20.976C174.114 20.08 173.042 19.632 171.698 19.632C170.338 19.632 169.25 20.072 168.434 20.952C167.634 21.832 167.234 23.024 167.234 24.528C167.234 26.016 167.634 27.208 168.434 28.104C169.25 28.984 170.338 29.424 171.698 29.424ZM191.189 33L187.685 26.64H186.701V33H182.597V16.152H189.485C190.813 16.152 191.941 16.384 192.869 16.848C193.813 17.312 194.517 17.952 194.981 18.768C195.445 19.568 195.677 20.464 195.677 21.456C195.677 22.576 195.357 23.576 194.717 24.456C194.093 25.336 193.165 25.96 191.933 26.328L195.821 33H191.189ZM186.701 23.736H189.245C189.997 23.736 190.557 23.552 190.925 23.184C191.309 22.816 191.501 22.296 191.501 21.624C191.501 20.984 191.309 20.48 190.925 20.112C190.557 19.744 189.997 19.56 189.245 19.56H186.701V23.736ZM202.358 29.832H207.734V33H198.254V16.152H202.358V29.832ZM216.003 16.152C217.779 16.152 219.331 16.504 220.659 17.208C221.987 17.912 223.011 18.904 223.731 20.184C224.467 21.448 224.835 22.912 224.835 24.576C224.835 26.224 224.467 27.688 223.731 28.968C223.011 30.248 221.979 31.24 220.635 31.944C219.307 32.648 217.763 33 216.003 33H209.691V16.152H216.003ZM215.739 29.448C217.291 29.448 218.499 29.024 219.363 28.176C220.227 27.328 220.659 26.128 220.659 24.576C220.659 23.024 220.227 21.816 219.363 20.952C218.499 20.088 217.291 19.656 215.739 19.656H213.795V29.448H215.739Z" fill="black"/>
<path d="M63.8242 48.8125C64.168 47.3672 64.4414 46.207 64.6445 45.332C64.8555 44.457 65.0156 43.7891 65.125 43.3281C65.25 42.7812 65.3359 42.4023 65.3828 42.1914C65.4062 42.043 65.4258 41.8984 65.4414 41.7578C65.457 41.6328 65.4648 41.5039 65.4648 41.3711C65.4648 41.2383 65.4531 41.1172 65.4297 41.0078C65.4922 40.9688 65.5586 40.9375 65.6289 40.9141C65.707 40.8906 65.7812 40.8711 65.8516 40.8555C65.9375 40.832 66.0234 40.8125 66.1094 40.7969C66.1953 40.7812 66.2734 40.7734 66.3438 40.7734C66.4062 40.7734 66.4648 40.7812 66.5195 40.7969C66.5742 40.8047 66.6094 40.8281 66.625 40.8672C66.6719 40.9062 66.6914 40.9844 66.6836 41.1016C66.6836 41.2188 66.6758 41.3398 66.6602 41.4648C66.6289 41.6133 66.5938 41.7734 66.5547 41.9453C66.4609 42.2812 66.332 42.7656 66.168 43.3984C66.0273 43.9375 65.8359 44.6719 65.5938 45.6016C65.3594 46.5312 65.0625 47.7031 64.7031 49.1172C64.6641 49.1562 64.6172 49.1836 64.5625 49.1992C64.5078 49.2148 64.457 49.2227 64.4102 49.2227C64.3555 49.2227 64.2969 49.2188 64.2344 49.2109C64.1797 49.1953 64.125 49.1719 64.0703 49.1406C64.0234 49.1094 63.9766 49.0664 63.9297 49.0117C63.8828 48.9648 63.8477 48.8984 63.8242 48.8125ZM68.0781 49.1875C67.7812 49.1875 67.5391 49.1406 67.3516 49.0469C67.1641 48.9531 67.0156 48.8398 66.9062 48.707C66.8047 48.5664 66.7305 48.418 66.6836 48.2617C66.6445 48.0977 66.625 47.9492 66.625 47.8164C66.625 47.582 66.6445 47.3359 66.6836 47.0781C66.7227 46.8125 66.7695 46.5703 66.8242 46.3516C66.8789 46.125 66.9258 45.9336 66.9648 45.7773C67.0117 45.6211 67.043 45.5234 67.0586 45.4844C67.1289 45.2578 67.2188 45.0625 67.3281 44.8984C67.4453 44.7266 67.6055 44.6094 67.8086 44.5469C67.8867 44.5312 67.9688 44.5156 68.0547 44.5C68.125 44.4922 68.1953 44.4883 68.2656 44.4883C68.3438 44.4883 68.4141 44.5 68.4766 44.5234C68.2656 45.0625 68.0977 45.5117 67.9727 45.8711C67.8555 46.2305 67.7656 46.5234 67.7031 46.75C67.6328 47.0078 67.5898 47.2148 67.5742 47.3711C67.5352 47.7227 67.5664 47.9883 67.668 48.168C67.7695 48.3477 67.9766 48.4375 68.2891 48.4375C68.4922 48.4375 68.6875 48.3633 68.875 48.2148C69.0625 48.0586 69.2344 47.8594 69.3906 47.6172C69.3672 47.4922 69.3555 47.3633 69.3555 47.2305C69.3555 46.9805 69.375 46.7383 69.4141 46.5039C69.4609 46.2617 69.5117 46.0391 69.5664 45.8359C69.6289 45.625 69.6914 45.4375 69.7539 45.2734C69.8242 45.1094 69.8828 44.9805 69.9297 44.8867C70.0156 44.6992 70.0938 44.5859 70.1641 44.5469C70.2344 44.5 70.3477 44.4727 70.5039 44.4648C70.5664 44.457 70.6172 44.457 70.6562 44.4648C70.7031 44.4648 70.7422 44.4688 70.7734 44.4766C70.8672 44.5 70.9141 44.5469 70.9141 44.6172C70.9141 44.7422 70.9062 44.9297 70.8906 45.1797C70.875 45.4297 70.8281 45.6875 70.75 45.9531C70.6953 46.1719 70.6406 46.3594 70.5859 46.5156C70.5391 46.6641 70.4922 46.793 70.4453 46.9023C70.3984 47.0039 70.3516 47.0898 70.3047 47.1602C70.2578 47.2227 70.2148 47.2812 70.1758 47.3359C70.1914 47.5703 70.2109 47.7578 70.2344 47.8984C70.2578 48.0391 70.2852 48.1484 70.3164 48.2266C70.3555 48.2969 70.3984 48.3477 70.4453 48.3789C70.5 48.4023 70.5586 48.4141 70.6211 48.4141C70.7305 48.4141 70.8594 48.3633 71.0078 48.2617C71.1562 48.1523 71.3086 48.0195 71.4648 47.8633C71.6289 47.6992 71.7891 47.5234 71.9453 47.3359C72.1094 47.1406 72.2578 46.957 72.3906 46.7852C72.5234 46.6133 72.6367 46.4648 72.7305 46.3398C72.8242 46.207 72.8828 46.125 72.9062 46.0938C72.9609 46.0234 73.0117 45.9805 73.0586 45.9648C73.1133 45.9492 73.1562 45.957 73.1875 45.9883C73.2188 46.0117 73.2344 46.0547 73.2344 46.1172C73.2422 46.1719 73.2266 46.2344 73.1875 46.3047C73.0312 46.6016 72.8359 46.918 72.6016 47.2539C72.375 47.582 72.1289 47.8867 71.8633 48.168C71.6055 48.4492 71.3438 48.6836 71.0781 48.8711C70.8125 49.0586 70.5625 49.1523 70.3281 49.1523C70.1172 49.1523 69.9492 49.082 69.8242 48.9414C69.707 48.793 69.6055 48.582 69.5195 48.3086C69.3398 48.5898 69.1289 48.8086 68.8867 48.9648C68.6445 49.1133 68.375 49.1875 68.0781 49.1875ZM77.3711 47.4531C77.043 47.8672 76.75 48.1953 76.4922 48.4375C76.2422 48.6719 76.0195 48.8477 75.8242 48.9648C75.6289 49.082 75.457 49.1562 75.3086 49.1875C75.1602 49.2188 75.0273 49.2344 74.9102 49.2344C74.7617 49.2344 74.6367 49.1992 74.5352 49.1289C74.4336 49.0586 74.3477 48.9727 74.2773 48.8711C74.207 48.7695 74.1523 48.6641 74.1133 48.5547C74.0742 48.4453 74.043 48.3516 74.0195 48.2734C73.9883 48.1875 73.9531 48.0898 73.9141 47.9805C73.8828 47.8711 73.8477 47.75 73.8086 47.6172C73.6523 47.7812 73.4883 47.957 73.3164 48.1445C73.168 48.3008 73 48.4805 72.8125 48.6836C72.625 48.8789 72.4336 49.0781 72.2383 49.2812C72.168 49.2969 72.1055 49.2969 72.0508 49.2812C71.9961 49.2656 71.9492 49.25 71.9102 49.2344C71.8633 49.2109 71.8242 49.1836 71.793 49.1523C71.7695 49.1289 71.7461 49.1016 71.7227 49.0703C71.707 49.0469 71.6914 49.0195 71.6758 48.9883C71.6523 48.9492 71.6445 48.9102 71.6523 48.8711C71.8789 48.6133 72.1016 48.3594 72.3203 48.1094C72.5469 47.8516 72.75 47.6211 72.9297 47.418C73.1328 47.1836 73.3281 46.957 73.5156 46.7383C73.4062 46.4414 73.3086 46.1641 73.2227 45.9062C73.1367 45.6484 73.0742 45.4648 73.0352 45.3555C72.957 45.1289 72.8867 44.9414 72.8242 44.793C72.7695 44.6445 72.6719 44.5391 72.5312 44.4766C72.625 44.3906 72.7148 44.3242 72.8008 44.2773C72.8945 44.2227 72.9766 44.1836 73.0469 44.1602C73.1328 44.1289 73.207 44.1133 73.2695 44.1133C73.4492 44.1133 73.6055 44.2734 73.7383 44.5938C73.8789 44.9062 74.0195 45.3398 74.1602 45.8945C74.1602 45.918 74.168 45.9453 74.1836 45.9766C74.3477 45.7812 74.5039 45.5977 74.6523 45.4258C74.8086 45.2539 74.9414 45.1016 75.0508 44.9688C75.168 44.8359 75.2617 44.7305 75.332 44.6523C75.4023 44.5742 75.4453 44.5273 75.4609 44.5117C75.6172 44.332 75.7578 44.2305 75.8828 44.207C76.0078 44.1836 76.1211 44.2109 76.2227 44.2891C76.2695 44.3203 76.3203 44.3516 76.375 44.3828C76.4766 44.4453 76.5977 44.5039 76.7383 44.5586C76.6055 44.6836 76.457 44.8281 76.293 44.9922C76.1367 45.1484 75.9883 45.3008 75.8477 45.4492C75.6836 45.6211 75.5195 45.793 75.3555 45.9648C75.2383 46.082 75.0977 46.2266 74.9336 46.3984C74.7773 46.5703 74.6094 46.7578 74.4297 46.9609C74.4844 47.1562 74.543 47.3398 74.6055 47.5117C74.668 47.6836 74.7305 47.8359 74.793 47.9688C74.8633 48.1016 74.9336 48.207 75.0039 48.2852C75.0742 48.3633 75.1484 48.4023 75.2266 48.4023C75.3516 48.4023 75.4922 48.3711 75.6484 48.3086C75.8047 48.2383 75.9688 48.1445 76.1406 48.0273C76.3125 47.9102 76.4844 47.7734 76.6562 47.6172C76.8359 47.4609 77.0117 47.2969 77.1836 47.125C77.2461 47.0625 77.3047 47.0273 77.3594 47.0195C77.4219 47.0117 77.4648 47.0234 77.4883 47.0547C77.5117 47.0859 77.5156 47.1367 77.5 47.207C77.4922 47.2773 77.4492 47.3594 77.3711 47.4531ZM78.4961 49.1875C78.1992 49.1875 77.957 49.1406 77.7695 49.0469C77.582 48.9531 77.4336 48.8398 77.3242 48.707C77.2227 48.5664 77.1484 48.418 77.1016 48.2617C77.0625 48.0977 77.043 47.9492 77.043 47.8164C77.043 47.582 77.0625 47.3359 77.1016 47.0781C77.1406 46.8125 77.1875 46.5703 77.2422 46.3516C77.2969 46.125 77.3438 45.9336 77.3828 45.7773C77.4297 45.6211 77.4609 45.5234 77.4766 45.4844C77.5469 45.2578 77.6367 45.0625 77.7461 44.8984C77.8633 44.7266 78.0234 44.6094 78.2266 44.5469C78.3047 44.5312 78.3867 44.5156 78.4727 44.5C78.543 44.4922 78.6133 44.4883 78.6836 44.4883C78.7617 44.4883 78.832 44.5 78.8945 44.5234C78.6836 45.0625 78.5156 45.5117 78.3906 45.8711C78.2734 46.2305 78.1836 46.5234 78.1211 46.75C78.0508 47.0078 78.0078 47.2148 77.9922 47.3711C77.9531 47.7227 77.9844 47.9883 78.0859 48.168C78.1875 48.3477 78.3945 48.4375 78.707 48.4375C78.9102 48.4375 79.1055 48.3633 79.293 48.2148C79.4805 48.0586 79.6523 47.8594 79.8086 47.6172C79.7852 47.4922 79.7734 47.3633 79.7734 47.2305C79.7734 46.9805 79.793 46.7383 79.832 46.5039C79.8789 46.2617 79.9297 46.0391 79.9844 45.8359C80.0469 45.625 80.1094 45.4375 80.1719 45.2734C80.2422 45.1094 80.3008 44.9805 80.3477 44.8867C80.4336 44.6992 80.5117 44.5859 80.582 44.5469C80.6523 44.5 80.7656 44.4727 80.9219 44.4648C80.9844 44.457 81.0352 44.457 81.0742 44.4648C81.1211 44.4648 81.1602 44.4688 81.1914 44.4766C81.2852 44.5 81.332 44.5469 81.332 44.6172C81.332 44.7422 81.3242 44.9297 81.3086 45.1797C81.293 45.4297 81.2461 45.6875 81.168 45.9531C81.1133 46.1719 81.0586 46.3594 81.0039 46.5156C80.957 46.6641 80.9102 46.793 80.8633 46.9023C80.8164 47.0039 80.7695 47.0898 80.7227 47.1602C80.6758 47.2227 80.6328 47.2812 80.5938 47.3359C80.6094 47.5703 80.6289 47.7578 80.6523 47.8984C80.6758 48.0391 80.7031 48.1484 80.7344 48.2266C80.7734 48.2969 80.8164 48.3477 80.8633 48.3789C80.918 48.4023 80.9766 48.4141 81.0391 48.4141C81.1484 48.4141 81.2773 48.3633 81.4258 48.2617C81.5742 48.1523 81.7266 48.0195 81.8828 47.8633C82.0469 47.6992 82.207 47.5234 82.3633 47.3359C82.5273 47.1406 82.6758 46.957 82.8086 46.7852C82.9414 46.6133 83.0547 46.4648 83.1484 46.3398C83.2422 46.207 83.3008 46.125 83.3242 46.0938C83.3789 46.0234 83.4297 45.9805 83.4766 45.9648C83.5312 45.9492 83.5742 45.957 83.6055 45.9883C83.6367 46.0117 83.6523 46.0547 83.6523 46.1172C83.6602 46.1719 83.6445 46.2344 83.6055 46.3047C83.4492 46.6016 83.2539 46.918 83.0195 47.2539C82.793 47.582 82.5469 47.8867 82.2812 48.168C82.0234 48.4492 81.7617 48.6836 81.4961 48.8711C81.2305 49.0586 80.9805 49.1523 80.7461 49.1523C80.5352 49.1523 80.3672 49.082 80.2422 48.9414C80.125 48.793 80.0234 48.582 79.9375 48.3086C79.7578 48.5898 79.5469 48.8086 79.3047 48.9648C79.0625 49.1133 78.793 49.1875 78.4961 49.1875ZM82.2227 48.9414C82.168 49.0273 82.1094 49.082 82.0469 49.1055C81.9766 49.1367 81.918 49.1406 81.8711 49.1172C81.8164 49.1016 81.7812 49.0625 81.7656 49C81.75 48.9375 81.7656 48.8594 81.8125 48.7656C81.8359 48.7188 81.8906 48.6133 81.9766 48.4492C82.0547 48.2852 82.1523 48.0898 82.2695 47.8633C82.3789 47.6289 82.5 47.3789 82.6328 47.1133C82.7656 46.8398 82.8906 46.582 83.0078 46.3398C83.1328 46.0977 83.2461 45.8828 83.3477 45.6953C83.4492 45.5 83.5234 45.3594 83.5703 45.2734C83.4844 45.1953 83.4258 45.1406 83.3945 45.1094C83.3633 45.0703 83.3398 44.9922 83.3242 44.875C83.3086 44.7734 83.332 44.6406 83.3945 44.4766C83.457 44.3125 83.5391 44.1562 83.6406 44.0078C83.7422 43.8516 83.8555 43.7188 83.9805 43.6094C84.1055 43.5 84.2266 43.4453 84.3438 43.4453C84.5625 43.4453 84.7148 43.5156 84.8008 43.6562C84.8945 43.7969 84.9492 43.9414 84.9648 44.0898C84.9805 44.1914 84.9727 44.3203 84.9414 44.4766C84.9102 44.6328 84.8516 44.7734 84.7656 44.8984C84.7891 44.9141 84.8203 44.9336 84.8594 44.957C84.8984 44.9727 84.9609 44.9805 85.0469 44.9805C85.1719 44.9805 85.2578 44.9727 85.3047 44.957C85.3594 44.9414 85.4414 44.9336 85.5508 44.9336C85.6836 44.9336 85.793 44.9688 85.8789 45.0391C85.9648 45.1016 86.0352 45.1836 86.0898 45.2852C86.1445 45.3789 86.1836 45.4844 86.207 45.6016C86.2383 45.7109 86.2578 45.8125 86.2656 45.9062C86.2891 46.1016 86.2383 46.3047 86.1133 46.5156C85.9883 46.7266 85.8359 46.957 85.6562 47.207C85.5469 47.3633 85.4375 47.5391 85.3281 47.7344C85.2188 47.9297 85.1719 48.1055 85.1875 48.2617C85.2031 48.3633 85.2305 48.4453 85.2695 48.5078C85.3086 48.5703 85.418 48.6016 85.5977 48.6016C85.7305 48.6016 85.875 48.5547 86.0312 48.4609C86.1953 48.3594 86.3594 48.2344 86.5234 48.0859C86.6953 47.9297 86.8633 47.7617 87.0273 47.582C87.1914 47.3945 87.3438 47.2148 87.4844 47.043C87.625 46.8633 87.7422 46.7031 87.8359 46.5625C87.9375 46.4219 88.0117 46.3203 88.0586 46.2578C88.0977 46.1953 88.1484 46.1523 88.2109 46.1289C88.2734 46.1055 88.3281 46.1055 88.375 46.1289C88.4219 46.1523 88.4492 46.1992 88.457 46.2695C88.4727 46.3398 88.4453 46.4336 88.375 46.5508C88.3281 46.6289 88.2461 46.7539 88.1289 46.9258C88.0195 47.0977 87.8828 47.2891 87.7188 47.5C87.5625 47.7109 87.3867 47.9297 87.1914 48.1562C86.9961 48.375 86.7891 48.5781 86.5703 48.7656C86.3594 48.9453 86.1445 49.0938 85.9258 49.2109C85.7148 49.3281 85.5117 49.3867 85.3164 49.3867C85.1133 49.3867 84.9453 49.3477 84.8125 49.2695C84.6797 49.1914 84.5703 49.0977 84.4844 48.9883C84.4062 48.8711 84.3477 48.7461 84.3086 48.6133C84.2773 48.4727 84.2656 48.3438 84.2734 48.2266C84.2812 48.1328 84.3047 48.0352 84.3438 47.9336C84.3906 47.8242 84.4414 47.7148 84.4961 47.6055C84.5586 47.4883 84.6211 47.375 84.6836 47.2656C84.7539 47.1484 84.8164 47.0352 84.8711 46.9258C85.0039 46.6992 85.1094 46.5078 85.1875 46.3516C85.2734 46.1875 85.3164 46.0508 85.3164 45.9414C85.3164 45.8711 85.3008 45.8086 85.2695 45.7539C85.2383 45.6992 85.1875 45.6719 85.1172 45.6719C85.0703 45.6719 85.0352 45.6758 85.0117 45.6836C84.9961 45.6836 84.9766 45.6836 84.9531 45.6836C84.9375 45.6836 84.9102 45.6875 84.8711 45.6953C84.8398 45.6953 84.7891 45.6953 84.7188 45.6953C84.6172 45.6953 84.5312 45.6797 84.4609 45.6484C84.3906 45.6172 84.3242 45.5938 84.2617 45.5781C84.2305 45.6328 84.1602 45.75 84.0508 45.9297C83.9414 46.1094 83.8125 46.3203 83.6641 46.5625C83.5234 46.8047 83.3711 47.0586 83.207 47.3242C83.0508 47.5898 82.9023 47.8398 82.7617 48.0742C82.6211 48.3008 82.5039 48.4961 82.4102 48.6602C82.3086 48.8164 82.2461 48.9102 82.2227 48.9414ZM90.625 44.6875C90.7266 44.6094 90.8242 44.5508 90.918 44.5117C91.0195 44.4648 91.1094 44.4336 91.1875 44.418C91.2734 44.3945 91.3594 44.3867 91.4453 44.3945C91.6562 44.4102 91.7852 44.4766 91.832 44.5938C91.8867 44.7109 91.8945 44.8984 91.8555 45.1562C91.832 45.2891 91.7852 45.457 91.7148 45.6602C91.6445 45.8633 91.5625 46.1133 91.4688 46.4102C91.375 46.6992 91.2734 47.0312 91.1641 47.4062C91.0625 47.7812 90.9648 48.2031 90.8711 48.6719C90.7773 49.0547 90.6758 49.4961 90.5664 49.9961C90.4727 50.4336 90.3594 50.9609 90.2266 51.5781C90.1016 52.1953 89.9648 52.9023 89.8164 53.6992C89.7773 53.8945 89.6914 54.0078 89.5586 54.0391C89.4336 54.0703 89.3008 54.0547 89.1602 53.9922C89.1055 53.9609 89.0547 53.9258 89.0078 53.8867C88.9688 53.8477 88.9258 53.8008 88.8789 53.7461C88.832 53.6992 88.793 53.6328 88.7617 53.5469C88.9414 52.8906 89.0977 52.293 89.2305 51.7539C89.3711 51.2148 89.4961 50.7461 89.6055 50.3477C89.7227 49.8867 89.832 49.4727 89.9336 49.1055C89.9727 48.9414 90.0078 48.7812 90.0391 48.625C90.0781 48.4609 90.1172 48.3008 90.1562 48.1445C90.0547 48.3086 89.9453 48.4648 89.8281 48.6133C89.7109 48.7617 89.582 48.8906 89.4414 49C89.3008 49.1094 89.1484 49.1914 88.9844 49.2461C88.8281 49.3086 88.6641 49.3281 88.4922 49.3047C88.0703 49.25 87.7695 49.0938 87.5898 48.8359C87.418 48.5781 87.3438 48.2422 87.3672 47.8281C87.375 47.6641 87.3984 47.4844 87.4375 47.2891C87.4766 47.0938 87.5195 46.9062 87.5664 46.7266C87.6133 46.5469 87.6562 46.3867 87.6953 46.2461C87.7422 46.0977 87.7773 45.9922 87.8008 45.9297C87.8945 45.6328 87.9609 45.3789 88 45.168C88.0469 44.957 88.0156 44.7812 87.9062 44.6406C88.0156 44.5703 88.1172 44.5234 88.2109 44.5C88.3125 44.4688 88.4023 44.4453 88.4805 44.4297C88.5664 44.4219 88.6523 44.4219 88.7383 44.4297C88.9492 44.4609 89.0703 44.5391 89.1016 44.6641C89.1406 44.7891 89.1289 44.9766 89.0664 45.2266C89.0352 45.3594 88.9844 45.5312 88.9141 45.7422C88.8438 45.9453 88.7695 46.1562 88.6914 46.375C88.6133 46.5938 88.543 46.7969 88.4805 46.9844C88.418 47.1641 88.3828 47.293 88.375 47.3711C88.3047 47.7227 88.3008 47.9961 88.3633 48.1914C88.4258 48.3789 88.5625 48.4727 88.7734 48.4727C88.875 48.4727 88.9883 48.4297 89.1133 48.3438C89.2383 48.25 89.3633 48.1289 89.4883 47.9805C89.6211 47.832 89.75 47.6641 89.875 47.4766C90 47.2812 90.1133 47.0859 90.2148 46.8906C90.3242 46.6953 90.418 46.5039 90.4961 46.3164C90.582 46.1289 90.6445 45.9609 90.6836 45.8125C90.7383 45.5234 90.7734 45.2969 90.7891 45.1328C90.8047 44.9688 90.75 44.8203 90.625 44.6875ZM92.6641 48.1211C92.8672 48.1445 93 48.2344 93.0625 48.3906C93.1328 48.5469 93.1484 48.7227 93.1094 48.918C93.0938 49.0195 93.0625 49.1328 93.0156 49.2578C92.9688 49.3906 92.9023 49.5273 92.8164 49.668C92.7305 49.8086 92.625 49.9414 92.5 50.0664C92.375 50.1992 92.2227 50.3164 92.043 50.418C91.9727 50.457 91.9141 50.4727 91.8672 50.4648C91.8203 50.457 91.7891 50.4375 91.7734 50.4062C91.7578 50.375 91.7578 50.3359 91.7734 50.2891C91.7812 50.2422 91.8086 50.1992 91.8555 50.1602C91.9336 50.082 92.0195 49.9648 92.1133 49.8086C92.2148 49.6602 92.2852 49.4961 92.3242 49.3164C92.2852 49.3242 92.2461 49.3281 92.207 49.3281C92.1758 49.3359 92.1406 49.3359 92.1016 49.3281C91.9844 49.3125 91.8828 49.2578 91.7969 49.1641C91.7109 49.0781 91.6758 48.9531 91.6914 48.7891C91.7227 48.5859 91.8359 48.418 92.0312 48.2852C92.2266 48.1445 92.4375 48.0898 92.6641 48.1211ZM103.832 46.668C103.723 46.8242 103.582 47.0195 103.41 47.2539C103.238 47.4805 103.059 47.7109 102.871 47.9453C102.691 48.1719 102.512 48.3828 102.332 48.5781C102.16 48.7656 102.016 48.8984 101.898 48.9766C101.82 49.0234 101.73 49.0625 101.629 49.0938C101.527 49.125 101.422 49.1445 101.312 49.1523C101.211 49.1602 101.113 49.1523 101.02 49.1289C100.926 49.1133 100.844 49.082 100.773 49.0352C100.703 48.9805 100.645 48.9023 100.598 48.8008C100.559 48.7148 100.52 48.6016 100.48 48.4609C100.449 48.3203 100.438 48.1445 100.445 47.9336C100.258 48.2461 100.051 48.4883 99.8242 48.6602C99.5977 48.8242 99.3828 48.9453 99.1797 49.0234C98.9453 49.1094 98.7109 49.1602 98.4766 49.1758C98.3672 49.1758 98.25 49.1367 98.125 49.0586C98 48.9883 97.8945 48.875 97.8086 48.7188C97.7227 48.5547 97.668 48.3477 97.6445 48.0977C97.6211 47.8398 97.6523 47.5352 97.7383 47.1836C97.8477 46.707 98.0195 46.2734 98.2539 45.8828C98.4961 45.4922 98.7578 45.1602 99.0391 44.8867C99.3203 44.6055 99.5977 44.3945 99.8711 44.2539C100.145 44.1133 100.371 44.0508 100.551 44.0664C100.762 44.1055 100.934 44.168 101.066 44.2539C101.176 44.332 101.246 44.4492 101.277 44.6055C101.316 44.7539 101.254 44.9531 101.09 45.2031C101.199 45.1797 101.289 45.1641 101.359 45.1562C101.438 45.1484 101.496 45.1445 101.535 45.1445C101.582 45.1445 101.613 45.1484 101.629 45.1562C101.637 45.1719 101.641 45.207 101.641 45.2617C101.641 45.3086 101.629 45.3984 101.605 45.5312C101.582 45.6641 101.547 45.8438 101.5 46.0703C101.453 46.2969 101.391 46.5898 101.312 46.9492C101.297 47.0195 101.281 47.0859 101.266 47.1484C101.258 47.2031 101.246 47.2617 101.23 47.3242C101.223 47.3789 101.211 47.4453 101.195 47.5234C101.18 47.6016 101.16 47.6992 101.137 47.8164C101.129 47.8867 101.125 47.9648 101.125 48.0508C101.133 48.1289 101.148 48.2031 101.172 48.2734C101.195 48.3438 101.23 48.4023 101.277 48.4492C101.332 48.4883 101.406 48.5078 101.5 48.5078C101.578 48.5078 101.68 48.4609 101.805 48.3672C101.93 48.2656 102.062 48.1406 102.203 47.9922C102.344 47.8359 102.488 47.668 102.637 47.4883C102.793 47.3008 102.938 47.1211 103.07 46.9492C103.203 46.7773 103.32 46.625 103.422 46.4922C103.531 46.3594 103.609 46.2617 103.656 46.1992C103.719 46.1289 103.781 46.0898 103.844 46.082C103.906 46.0664 103.953 46.082 103.984 46.1289C104.016 46.1758 104.02 46.2461 103.996 46.3398C103.98 46.4336 103.926 46.543 103.832 46.668ZM100.398 47.1836C100.438 47.0273 100.484 46.8438 100.539 46.6328C100.594 46.4219 100.641 46.2188 100.68 46.0234C100.719 45.8281 100.746 45.668 100.762 45.543C100.785 45.4102 100.781 45.3477 100.75 45.3555C100.711 45.3633 100.668 45.375 100.621 45.3906C100.582 45.4062 100.531 45.418 100.469 45.4258C100.406 45.4336 100.344 45.4453 100.281 45.4609C100.344 45.3359 100.379 45.2344 100.387 45.1562C100.402 45.0703 100.406 45.0039 100.398 44.957C100.391 44.9023 100.375 44.8594 100.352 44.8281C100.266 44.7578 100.113 44.8164 99.8945 45.0039C99.6836 45.1836 99.4375 45.5195 99.1562 46.0117C99.0391 46.2148 98.9453 46.4336 98.875 46.668C98.8047 46.8945 98.7539 47.1094 98.7227 47.3125C98.6992 47.5156 98.6953 47.6953 98.7109 47.8516C98.7266 48 98.7578 48.0977 98.8047 48.1445C98.8906 48.2305 98.9883 48.2734 99.0977 48.2734C99.207 48.2656 99.3164 48.2344 99.4258 48.1797C99.543 48.1172 99.6562 48.0391 99.7656 47.9453C99.8828 47.8516 99.9844 47.7539 100.07 47.6523C100.164 47.5508 100.238 47.457 100.293 47.3711C100.355 47.2852 100.391 47.2227 100.398 47.1836ZM106.527 49.293C106.348 49.293 106.191 49.2578 106.059 49.1875C105.934 49.125 105.832 49.0391 105.754 48.9297C105.676 48.8203 105.625 48.6953 105.602 48.5547C105.578 48.4062 105.586 48.25 105.625 48.0859C105.648 47.9766 105.688 47.832 105.742 47.6523C105.797 47.4648 105.852 47.2656 105.906 47.0547C105.969 46.8359 106.023 46.6211 106.07 46.4102C106.125 46.1914 106.16 45.9961 106.176 45.8242C106.191 45.6445 106.184 45.5 106.152 45.3906C106.121 45.2734 106.055 45.2148 105.953 45.2148C105.828 45.2148 105.699 45.2578 105.566 45.3438C105.434 45.4219 105.297 45.5312 105.156 45.6719C105.023 45.8125 104.887 45.9766 104.746 46.1641C104.613 46.3438 104.48 46.5312 104.348 46.7266C104.277 46.9922 104.219 47.2266 104.172 47.4297C104.125 47.625 104.082 47.8047 104.043 47.9688C104.012 48.125 103.98 48.2656 103.949 48.3906C103.918 48.5078 103.891 48.6211 103.867 48.7305C103.844 48.8086 103.773 48.8867 103.656 48.9648C103.539 49.0352 103.414 49.0938 103.281 49.1406C103.148 49.1875 103.035 49.2109 102.941 49.2109C102.84 49.2109 102.797 49.1758 102.812 49.1055C102.82 49.0586 102.848 48.9531 102.895 48.7891C102.934 48.625 102.984 48.4336 103.047 48.2148C103.102 47.9883 103.16 47.75 103.223 47.5C103.285 47.25 103.344 47.0117 103.398 46.7852C103.438 46.6055 103.48 46.4062 103.527 46.1875C103.566 46 103.613 45.7812 103.668 45.5312C103.73 45.2812 103.801 45.0078 103.879 44.7109C103.934 44.6641 103.988 44.6289 104.043 44.6055C104.105 44.5742 104.168 44.5508 104.23 44.5352C104.293 44.5117 104.359 44.4961 104.43 44.4883C104.492 44.4883 104.555 44.4922 104.617 44.5C104.672 44.5078 104.727 44.5234 104.781 44.5469C104.844 44.5625 104.898 44.5898 104.945 44.6289C104.922 44.6836 104.895 44.7617 104.863 44.8633C104.832 44.957 104.801 45.0586 104.77 45.168C104.738 45.293 104.699 45.4219 104.652 45.5547C104.754 45.4141 104.867 45.2734 104.992 45.1328C105.125 44.9844 105.266 44.8516 105.414 44.7344C105.57 44.6172 105.734 44.5234 105.906 44.4531C106.078 44.375 106.254 44.3359 106.434 44.3359C106.582 44.3359 106.715 44.3789 106.832 44.4648C106.949 44.5508 107.039 44.6719 107.102 44.8281C107.172 44.9766 107.211 45.1562 107.219 45.3672C107.234 45.5781 107.207 45.8086 107.137 46.0586L107.008 46.5742C106.969 46.7383 106.918 46.9336 106.855 47.1602C106.801 47.3789 106.73 47.6211 106.645 47.8867C106.598 48.0586 106.578 48.207 106.586 48.332C106.602 48.457 106.68 48.5195 106.82 48.5195C106.961 48.5195 107.137 48.4336 107.348 48.2617C107.566 48.0898 107.785 47.8828 108.004 47.6406C108.223 47.3984 108.43 47.1523 108.625 46.9023C108.82 46.6445 108.969 46.4375 109.07 46.2812C109.141 46.1797 109.207 46.1133 109.27 46.082C109.332 46.0508 109.379 46.0469 109.41 46.0703C109.449 46.0938 109.469 46.1484 109.469 46.2344C109.469 46.3125 109.438 46.4141 109.375 46.5391C109.32 46.6484 109.234 46.793 109.117 46.9727C109.008 47.1523 108.875 47.3438 108.719 47.5469C108.562 47.75 108.395 47.957 108.215 48.168C108.035 48.3711 107.848 48.5586 107.652 48.7305C107.457 48.8945 107.262 49.0273 107.066 49.1289C106.879 49.2383 106.699 49.293 106.527 49.293ZM112.316 46.7617C112.277 47.0039 112.238 47.2344 112.199 47.4531C112.168 47.6719 112.148 47.8477 112.141 47.9805C112.133 48.1758 112.168 48.3164 112.246 48.4023C112.324 48.4883 112.41 48.5312 112.504 48.5312C112.613 48.5312 112.746 48.4766 112.902 48.3672C113.066 48.2578 113.238 48.1211 113.418 47.957C113.598 47.793 113.777 47.6133 113.957 47.418C114.137 47.2227 114.301 47.0391 114.449 46.8672C114.605 46.6875 114.734 46.5312 114.836 46.3984C114.945 46.2656 115.02 46.1797 115.059 46.1406C115.105 46.0938 115.152 46.0664 115.199 46.0586C115.254 46.0508 115.297 46.0586 115.328 46.082C115.359 46.1055 115.375 46.1484 115.375 46.2109C115.375 46.2734 115.344 46.3516 115.281 46.4453C115.188 46.5938 115.066 46.7695 114.918 46.9727C114.77 47.168 114.605 47.3711 114.426 47.582C114.246 47.793 114.055 48 113.852 48.2031C113.656 48.4062 113.457 48.5859 113.254 48.7422C113.059 48.8984 112.867 49.0234 112.68 49.1172C112.5 49.2188 112.336 49.2695 112.188 49.2695C112.078 49.2695 111.973 49.2383 111.871 49.1758C111.777 49.1133 111.691 49.0312 111.613 48.9297C111.535 48.8281 111.473 48.7148 111.426 48.5898C111.387 48.4648 111.371 48.3398 111.379 48.2148C111.387 48.1602 111.398 48.0664 111.414 47.9336C111.086 48.3008 110.754 48.5938 110.418 48.8125C110.09 49.0234 109.773 49.1289 109.469 49.1289C109.359 49.1289 109.242 49.1016 109.117 49.0469C108.992 48.9922 108.879 48.9023 108.777 48.7773C108.684 48.6523 108.605 48.4883 108.543 48.2852C108.48 48.082 108.457 47.8359 108.473 47.5469C108.496 47.0938 108.586 46.6641 108.742 46.2578C108.898 45.8516 109.094 45.5 109.328 45.2031C109.57 44.8984 109.84 44.6602 110.137 44.4883C110.441 44.3086 110.746 44.2188 111.051 44.2188C111.184 44.2188 111.305 44.2539 111.414 44.3242C111.523 44.3867 111.617 44.4727 111.695 44.582C111.773 44.6836 111.836 44.7969 111.883 44.9219C111.938 45.0469 111.977 45.1641 112 45.2734C112.055 45.0469 112.105 44.8242 112.152 44.6055C112.199 44.3867 112.246 44.1797 112.293 43.9844C112.371 43.6953 112.453 43.3828 112.539 43.0469C112.617 42.7578 112.707 42.4258 112.809 42.0508C112.91 41.6758 113.023 41.2812 113.148 40.8672C113.227 40.8047 113.301 40.7578 113.371 40.7266C113.441 40.6953 113.508 40.6719 113.57 40.6562C113.641 40.6328 113.707 40.6211 113.77 40.6211C113.848 40.6211 113.918 40.6328 113.98 40.6562C114.043 40.6719 114.094 40.7227 114.133 40.8086C114.18 40.8867 114.211 41.0078 114.227 41.1719C114.242 41.3359 114.242 41.5586 114.227 41.8398C114.211 42.1836 114.148 42.5586 114.039 42.9648C113.938 43.3711 113.801 43.793 113.629 44.2305C113.457 44.6602 113.258 45.0938 113.031 45.5312C112.812 45.9609 112.574 46.3711 112.316 46.7617ZM111.625 46.9141C111.656 46.7656 111.684 46.6172 111.707 46.4688C111.738 46.3203 111.773 46.168 111.812 46.0117C111.797 46.0195 111.781 46.0273 111.766 46.0352C111.758 46.043 111.746 46.0508 111.73 46.0586C111.645 46.0977 111.586 46.0977 111.555 46.0586C111.523 46.0117 111.508 45.9414 111.508 45.8477C111.508 45.8008 111.504 45.7188 111.496 45.6016C111.488 45.4766 111.465 45.3516 111.426 45.2266C111.395 45.0938 111.344 44.9805 111.273 44.8867C111.203 44.7852 111.105 44.7344 110.98 44.7344C110.801 44.7344 110.617 44.8281 110.43 45.0156C110.242 45.1953 110.066 45.418 109.902 45.6836C109.738 45.9414 109.602 46.2188 109.492 46.5156C109.383 46.8125 109.32 47.0781 109.305 47.3125C109.289 47.6875 109.336 47.957 109.445 48.1211C109.555 48.2852 109.703 48.3672 109.891 48.3672C110.031 48.3672 110.184 48.3125 110.348 48.2031C110.52 48.0938 110.684 47.9609 110.84 47.8047C111.004 47.6484 111.152 47.4883 111.285 47.3242C111.426 47.1602 111.539 47.0234 111.625 46.9141ZM123.766 46.668C123.656 46.8242 123.516 47.0195 123.344 47.2539C123.172 47.4805 122.992 47.7109 122.805 47.9453C122.625 48.1719 122.445 48.3828 122.266 48.5781C122.094 48.7656 121.949 48.8984 121.832 48.9766C121.754 49.0234 121.664 49.0625 121.562 49.0938C121.461 49.125 121.355 49.1445 121.246 49.1523C121.145 49.1602 121.047 49.1523 120.953 49.1289C120.859 49.1133 120.777 49.082 120.707 49.0352C120.637 48.9805 120.578 48.9023 120.531 48.8008C120.492 48.7148 120.453 48.6016 120.414 48.4609C120.383 48.3203 120.371 48.1445 120.379 47.9336C120.191 48.2461 119.984 48.4883 119.758 48.6602C119.531 48.8242 119.316 48.9453 119.113 49.0234C118.879 49.1094 118.645 49.1602 118.41 49.1758C118.301 49.1758 118.184 49.1367 118.059 49.0586C117.934 48.9883 117.828 48.875 117.742 48.7188C117.656 48.5547 117.602 48.3477 117.578 48.0977C117.555 47.8398 117.586 47.5352 117.672 47.1836C117.781 46.707 117.953 46.2734 118.188 45.8828C118.43 45.4922 118.691 45.1602 118.973 44.8867C119.254 44.6055 119.531 44.3945 119.805 44.2539C120.078 44.1133 120.305 44.0508 120.484 44.0664C120.695 44.1055 120.867 44.168 121 44.2539C121.109 44.332 121.18 44.4492 121.211 44.6055C121.25 44.7539 121.188 44.9531 121.023 45.2031C121.133 45.1797 121.223 45.1641 121.293 45.1562C121.371 45.1484 121.43 45.1445 121.469 45.1445C121.516 45.1445 121.547 45.1484 121.562 45.1562C121.57 45.1719 121.574 45.207 121.574 45.2617C121.574 45.3086 121.562 45.3984 121.539 45.5312C121.516 45.6641 121.48 45.8438 121.434 46.0703C121.387 46.2969 121.324 46.5898 121.246 46.9492C121.23 47.0195 121.215 47.0859 121.199 47.1484C121.191 47.2031 121.18 47.2617 121.164 47.3242C121.156 47.3789 121.145 47.4453 121.129 47.5234C121.113 47.6016 121.094 47.6992 121.07 47.8164C121.062 47.8867 121.059 47.9648 121.059 48.0508C121.066 48.1289 121.082 48.2031 121.105 48.2734C121.129 48.3438 121.164 48.4023 121.211 48.4492C121.266 48.4883 121.34 48.5078 121.434 48.5078C121.512 48.5078 121.613 48.4609 121.738 48.3672C121.863 48.2656 121.996 48.1406 122.137 47.9922C122.277 47.8359 122.422 47.668 122.57 47.4883C122.727 47.3008 122.871 47.1211 123.004 46.9492C123.137 46.7773 123.254 46.625 123.355 46.4922C123.465 46.3594 123.543 46.2617 123.59 46.1992C123.652 46.1289 123.715 46.0898 123.777 46.082C123.84 46.0664 123.887 46.082 123.918 46.1289C123.949 46.1758 123.953 46.2461 123.93 46.3398C123.914 46.4336 123.859 46.543 123.766 46.668ZM120.332 47.1836C120.371 47.0273 120.418 46.8438 120.473 46.6328C120.527 46.4219 120.574 46.2188 120.613 46.0234C120.652 45.8281 120.68 45.668 120.695 45.543C120.719 45.4102 120.715 45.3477 120.684 45.3555C120.645 45.3633 120.602 45.375 120.555 45.3906C120.516 45.4062 120.465 45.418 120.402 45.4258C120.34 45.4336 120.277 45.4453 120.215 45.4609C120.277 45.3359 120.312 45.2344 120.32 45.1562C120.336 45.0703 120.34 45.0039 120.332 44.957C120.324 44.9023 120.309 44.8594 120.285 44.8281C120.199 44.7578 120.047 44.8164 119.828 45.0039C119.617 45.1836 119.371 45.5195 119.09 46.0117C118.973 46.2148 118.879 46.4336 118.809 46.668C118.738 46.8945 118.688 47.1094 118.656 47.3125C118.633 47.5156 118.629 47.6953 118.645 47.8516C118.66 48 118.691 48.0977 118.738 48.1445C118.824 48.2305 118.922 48.2734 119.031 48.2734C119.141 48.2656 119.25 48.2344 119.359 48.1797C119.477 48.1172 119.59 48.0391 119.699 47.9453C119.816 47.8516 119.918 47.7539 120.004 47.6523C120.098 47.5508 120.172 47.457 120.227 47.3711C120.289 47.2852 120.324 47.2227 120.332 47.1836ZM123.215 47.7812C123.129 47.6953 123.066 47.6133 123.027 47.5352C122.996 47.4492 122.973 47.3672 122.957 47.2891C122.941 47.2031 122.941 47.1172 122.957 47.0312C122.988 46.9219 123.035 46.8203 123.098 46.7266C123.152 46.6406 123.227 46.5547 123.32 46.4688C123.414 46.375 123.539 46.2891 123.695 46.2109C123.797 45.9609 123.887 45.6992 123.965 45.4258C124.051 45.1445 124.125 44.8906 124.188 44.6641C124.258 44.3984 124.32 44.1328 124.375 43.8672C124.57 43.2031 124.672 42.6641 124.68 42.25C124.688 41.8281 124.68 41.5508 124.656 41.418C124.648 41.3633 124.641 41.3086 124.633 41.2539C124.617 41.207 124.602 41.1562 124.586 41.1016C124.578 41.0391 124.566 40.9805 124.551 40.9258C124.637 40.8789 124.711 40.8398 124.773 40.8086C124.844 40.7773 124.902 40.7539 124.949 40.7383C125.004 40.7148 125.055 40.6992 125.102 40.6914C125.281 40.6523 125.449 40.6328 125.605 40.6328C125.77 40.625 125.859 40.6523 125.875 40.7148C125.883 40.7539 125.891 40.8242 125.898 40.9258C125.914 41.0273 125.922 41.1523 125.922 41.3008C125.922 41.4492 125.91 41.6172 125.887 41.8047C125.863 41.9844 125.82 42.1758 125.758 42.3789C125.703 42.5586 125.629 42.8086 125.535 43.1289C125.449 43.4023 125.336 43.7695 125.195 44.2305C125.055 44.6836 124.871 45.2656 124.645 45.9766C124.879 45.8984 125.137 45.8242 125.418 45.7539C125.699 45.6836 125.984 45.625 126.273 45.5781C126.57 45.5312 126.863 45.4961 127.152 45.4727C127.449 45.4492 127.723 45.4453 127.973 45.4609C128.02 45.4609 128.051 45.4844 128.066 45.5312C128.09 45.5703 128.09 45.6133 128.066 45.6602C128.051 45.707 128.008 45.7539 127.938 45.8008C127.875 45.8398 127.781 45.8633 127.656 45.8711C127.5 45.8867 127.328 45.9062 127.141 45.9297C126.953 45.9453 126.758 45.9727 126.555 46.0117C126.359 46.043 126.164 46.0859 125.969 46.1406C125.773 46.1875 125.59 46.2461 125.418 46.3164C125.285 46.3633 125.152 46.4102 125.02 46.457C124.91 46.4961 124.793 46.543 124.668 46.5977C124.551 46.6445 124.453 46.6875 124.375 46.7266L124.105 47.582C124.559 47.9023 124.906 48.2305 125.148 48.5664C125.398 48.9023 125.578 49.2109 125.688 49.4922C125.82 49.8203 125.895 50.1406 125.91 50.4531C125.91 50.7969 125.859 51.1406 125.758 51.4844C125.656 51.8359 125.52 52.168 125.348 52.4805C125.184 52.8008 124.988 53.0977 124.762 53.3711C124.543 53.6445 124.309 53.8789 124.059 54.0742C123.816 54.2695 123.566 54.418 123.309 54.5195C123.059 54.6211 122.82 54.6602 122.594 54.6367C122.43 54.6211 122.293 54.5664 122.184 54.4727C122.074 54.3867 121.992 54.2734 121.938 54.1328C121.883 54 121.852 53.8477 121.844 53.6758C121.836 53.5117 121.852 53.3477 121.891 53.1836C121.922 53.0195 121.988 52.7148 122.09 52.2695C122.176 51.8945 122.309 51.3477 122.488 50.6289C122.668 49.918 122.91 48.9688 123.215 47.7812ZM123.906 48.332C123.797 48.7227 123.699 49.082 123.613 49.4102C123.535 49.7383 123.469 50.0273 123.414 50.2773C123.344 50.5664 123.289 50.8281 123.25 51.0625C123.18 51.3594 123.105 51.6523 123.027 51.9414C122.957 52.2305 122.902 52.4883 122.863 52.7148C122.816 52.9492 122.797 53.1367 122.805 53.2773C122.812 53.418 122.863 53.4883 122.957 53.4883C123.184 53.5039 123.418 53.4141 123.66 53.2188C123.91 53.0312 124.137 52.7891 124.34 52.4922C124.543 52.2031 124.711 51.8867 124.844 51.543C124.977 51.207 125.043 50.8945 125.043 50.6055C125.043 50.2852 124.992 49.9688 124.891 49.6562C124.82 49.4922 124.738 49.332 124.645 49.1758C124.559 49.043 124.453 48.9023 124.328 48.7539C124.211 48.5977 124.07 48.457 123.906 48.332ZM127.117 47.7812C127.031 47.6953 126.969 47.6133 126.93 47.5352C126.898 47.4492 126.875 47.3672 126.859 47.2891C126.844 47.2031 126.844 47.1172 126.859 47.0312C126.891 46.9219 126.938 46.8203 127 46.7266C127.055 46.6406 127.129 46.5547 127.223 46.4688C127.316 46.375 127.441 46.2891 127.598 46.2109C127.699 45.9609 127.789 45.6992 127.867 45.4258C127.953 45.1445 128.027 44.8906 128.09 44.6641C128.16 44.3984 128.223 44.1328 128.277 43.8672C128.473 43.2031 128.574 42.6641 128.582 42.25C128.59 41.8281 128.582 41.5508 128.559 41.418C128.551 41.3633 128.543 41.3086 128.535 41.2539C128.52 41.207 128.504 41.1562 128.488 41.1016C128.48 41.0391 128.469 40.9805 128.453 40.9258C128.539 40.8789 128.613 40.8398 128.676 40.8086C128.746 40.7773 128.805 40.7539 128.852 40.7383C128.906 40.7148 128.957 40.6992 129.004 40.6914C129.184 40.6523 129.352 40.6328 129.508 40.6328C129.672 40.625 129.762 40.6523 129.777 40.7148C129.785 40.7539 129.793 40.8242 129.801 40.9258C129.816 41.0273 129.824 41.1523 129.824 41.3008C129.824 41.4492 129.812 41.6172 129.789 41.8047C129.766 41.9844 129.723 42.1758 129.66 42.3789C129.605 42.5586 129.531 42.8086 129.438 43.1289C129.352 43.4023 129.238 43.7695 129.098 44.2305C128.957 44.6836 128.773 45.2656 128.547 45.9766C128.781 45.8984 129.039 45.8242 129.32 45.7539C129.602 45.6836 129.887 45.625 130.176 45.5781C130.473 45.5312 130.766 45.4961 131.055 45.4727C131.352 45.4492 131.625 45.4453 131.875 45.4609C131.922 45.4609 131.953 45.4844 131.969 45.5312C131.992 45.5703 131.992 45.6133 131.969 45.6602C131.953 45.707 131.91 45.7539 131.84 45.8008C131.777 45.8398 131.684 45.8633 131.559 45.8711C131.402 45.8867 131.23 45.9062 131.043 45.9297C130.855 45.9453 130.66 45.9727 130.457 46.0117C130.262 46.043 130.066 46.0859 129.871 46.1406C129.676 46.1875 129.492 46.2461 129.32 46.3164C129.188 46.3633 129.055 46.4102 128.922 46.457C128.812 46.4961 128.695 46.543 128.57 46.5977C128.453 46.6445 128.355 46.6875 128.277 46.7266L128.008 47.582C128.461 47.9023 128.809 48.2305 129.051 48.5664C129.301 48.9023 129.48 49.2109 129.59 49.4922C129.723 49.8203 129.797 50.1406 129.812 50.4531C129.812 50.7969 129.762 51.1406 129.66 51.4844C129.559 51.8359 129.422 52.168 129.25 52.4805C129.086 52.8008 128.891 53.0977 128.664 53.3711C128.445 53.6445 128.211 53.8789 127.961 54.0742C127.719 54.2695 127.469 54.418 127.211 54.5195C126.961 54.6211 126.723 54.6602 126.496 54.6367C126.332 54.6211 126.195 54.5664 126.086 54.4727C125.977 54.3867 125.895 54.2734 125.84 54.1328C125.785 54 125.754 53.8477 125.746 53.6758C125.738 53.5117 125.754 53.3477 125.793 53.1836C125.824 53.0195 125.891 52.7148 125.992 52.2695C126.078 51.8945 126.211 51.3477 126.391 50.6289C126.57 49.918 126.812 48.9688 127.117 47.7812ZM127.809 48.332C127.699 48.7227 127.602 49.082 127.516 49.4102C127.438 49.7383 127.371 50.0273 127.316 50.2773C127.246 50.5664 127.191 50.8281 127.152 51.0625C127.082 51.3594 127.008 51.6523 126.93 51.9414C126.859 52.2305 126.805 52.4883 126.766 52.7148C126.719 52.9492 126.699 53.1367 126.707 53.2773C126.715 53.418 126.766 53.4883 126.859 53.4883C127.086 53.5039 127.32 53.4141 127.562 53.2188C127.812 53.0312 128.039 52.7891 128.242 52.4922C128.445 52.2031 128.613 51.8867 128.746 51.543C128.879 51.207 128.945 50.8945 128.945 50.6055C128.945 50.2852 128.895 49.9688 128.793 49.6562C128.723 49.4922 128.641 49.332 128.547 49.1758C128.461 49.043 128.355 48.9023 128.23 48.7539C128.113 48.5977 127.973 48.457 127.809 48.332ZM134.254 47.1367C134.176 47.4336 134.07 47.7109 133.938 47.9688C133.805 48.2266 133.645 48.4492 133.457 48.6367C133.277 48.8242 133.07 48.9688 132.836 49.0703C132.609 49.1797 132.359 49.2344 132.086 49.2344C131.766 49.2344 131.512 49.1641 131.324 49.0234C131.145 48.8906 131.008 48.7227 130.914 48.5195C130.828 48.3164 130.777 48.0938 130.762 47.8516C130.738 47.6094 130.727 47.3828 130.727 47.1719C130.727 47.0234 130.746 46.8594 130.785 46.6797C130.816 46.5 130.863 46.3164 130.926 46.1289C130.988 45.9414 131.066 45.7539 131.16 45.5664C131.262 45.3789 131.379 45.207 131.512 45.0508C131.559 44.918 131.629 44.8008 131.723 44.6992C131.824 44.5977 131.938 44.5156 132.062 44.4531C132.195 44.3828 132.336 44.332 132.484 44.3008C132.633 44.2617 132.777 44.2422 132.918 44.2422C132.941 44.2422 132.961 44.2461 132.977 44.2539C133 44.2617 133.023 44.2695 133.047 44.2773C133.148 44.2852 133.273 44.3242 133.422 44.3945C133.578 44.4648 133.727 44.5703 133.867 44.7109C134.016 44.8516 134.141 45.0312 134.242 45.25C134.344 45.4609 134.395 45.7188 134.395 46.0234C134.395 46.0859 134.391 46.1641 134.383 46.2578C134.375 46.3438 134.367 46.418 134.359 46.4805C134.539 46.4102 134.727 46.3242 134.922 46.2227C135.117 46.1211 135.305 46.0156 135.484 45.9062C135.672 45.7891 135.844 45.6719 136 45.5547C136.156 45.4375 136.281 45.332 136.375 45.2383C136.453 45.168 136.52 45.1289 136.574 45.1211C136.629 45.1133 136.668 45.1289 136.691 45.168C136.715 45.207 136.719 45.2617 136.703 45.332C136.688 45.4023 136.645 45.4805 136.574 45.5664C136.535 45.6133 136.434 45.707 136.27 45.8477C136.113 45.9883 135.926 46.1406 135.707 46.3047C135.488 46.4688 135.25 46.6289 134.992 46.7852C134.734 46.9414 134.488 47.0586 134.254 47.1367ZM132.273 45.3555C132.25 45.4258 132.238 45.5 132.238 45.5781C132.238 45.7031 132.246 45.8359 132.262 45.9766C132.277 46.1094 132.316 46.2305 132.379 46.3398C132.441 46.4492 132.539 46.543 132.672 46.6211C132.812 46.6914 133.004 46.7266 133.246 46.7266C133.285 46.7266 133.324 46.7266 133.363 46.7266C133.402 46.7188 133.441 46.7109 133.48 46.7031C133.504 46.6016 133.523 46.5117 133.539 46.4336C133.562 46.3477 133.574 46.2734 133.574 46.2109C133.59 46.0625 133.59 45.9102 133.574 45.7539C133.559 45.5977 133.527 45.457 133.48 45.332C133.441 45.1992 133.387 45.0938 133.316 45.0156C133.254 44.9297 133.176 44.8867 133.082 44.8867C132.934 44.8867 132.789 44.9297 132.648 45.0156C132.516 45.0938 132.391 45.207 132.273 45.3555ZM131.523 47.418C131.523 47.5586 131.531 47.6992 131.547 47.8398C131.562 47.9727 131.594 48.0938 131.641 48.2031C131.688 48.3047 131.75 48.3906 131.828 48.4609C131.906 48.5234 132.008 48.5547 132.133 48.5547C132.273 48.5547 132.402 48.5234 132.52 48.4609C132.637 48.3906 132.742 48.3047 132.836 48.2031C132.93 48.0938 133.012 47.9727 133.082 47.8398C133.16 47.6992 133.227 47.5547 133.281 47.4062C133.227 47.4141 133.172 47.4219 133.117 47.4297C133.07 47.4297 133.016 47.4297 132.953 47.4297C132.656 47.4297 132.398 47.3438 132.18 47.1719C131.969 46.9922 131.805 46.7656 131.688 46.4922C131.641 46.6562 131.602 46.8164 131.57 46.9727C131.539 47.1289 131.523 47.2773 131.523 47.418ZM135.062 48.9414C135.008 49.0273 134.949 49.082 134.887 49.1055C134.816 49.1367 134.758 49.1406 134.711 49.1172C134.656 49.1016 134.621 49.0625 134.605 49C134.59 48.9375 134.605 48.8594 134.652 48.7656C134.676 48.7188 134.73 48.6133 134.816 48.4492C134.895 48.2852 134.992 48.0898 135.109 47.8633C135.219 47.6289 135.34 47.3789 135.473 47.1133C135.605 46.8398 135.73 46.582 135.848 46.3398C135.973 46.0977 136.086 45.8828 136.188 45.6953C136.289 45.5 136.363 45.3594 136.41 45.2734C136.324 45.1953 136.266 45.1406 136.234 45.1094C136.203 45.0703 136.18 44.9922 136.164 44.875C136.148 44.7734 136.172 44.6406 136.234 44.4766C136.297 44.3125 136.379 44.1562 136.48 44.0078C136.582 43.8516 136.695 43.7188 136.82 43.6094C136.945 43.5 137.066 43.4453 137.184 43.4453C137.402 43.4453 137.555 43.5156 137.641 43.6562C137.734 43.7969 137.789 43.9414 137.805 44.0898C137.82 44.1914 137.812 44.3203 137.781 44.4766C137.75 44.6328 137.691 44.7734 137.605 44.8984C137.629 44.9141 137.66 44.9336 137.699 44.957C137.738 44.9727 137.801 44.9805 137.887 44.9805C138.012 44.9805 138.098 44.9727 138.145 44.957C138.199 44.9414 138.281 44.9336 138.391 44.9336C138.523 44.9336 138.633 44.9688 138.719 45.0391C138.805 45.1016 138.875 45.1836 138.93 45.2852C138.984 45.3789 139.023 45.4844 139.047 45.6016C139.078 45.7109 139.098 45.8125 139.105 45.9062C139.129 46.1016 139.078 46.3047 138.953 46.5156C138.828 46.7266 138.676 46.957 138.496 47.207C138.387 47.3633 138.277 47.5391 138.168 47.7344C138.059 47.9297 138.012 48.1055 138.027 48.2617C138.043 48.3633 138.07 48.4453 138.109 48.5078C138.148 48.5703 138.258 48.6016 138.438 48.6016C138.57 48.6016 138.715 48.5547 138.871 48.4609C139.035 48.3594 139.199 48.2344 139.363 48.0859C139.535 47.9297 139.703 47.7617 139.867 47.582C140.031 47.3945 140.184 47.2148 140.324 47.043C140.465 46.8633 140.582 46.7031 140.676 46.5625C140.777 46.4219 140.852 46.3203 140.898 46.2578C140.938 46.1953 140.988 46.1523 141.051 46.1289C141.113 46.1055 141.168 46.1055 141.215 46.1289C141.262 46.1523 141.289 46.1992 141.297 46.2695C141.312 46.3398 141.285 46.4336 141.215 46.5508C141.168 46.6289 141.086 46.7539 140.969 46.9258C140.859 47.0977 140.723 47.2891 140.559 47.5C140.402 47.7109 140.227 47.9297 140.031 48.1562C139.836 48.375 139.629 48.5781 139.41 48.7656C139.199 48.9453 138.984 49.0938 138.766 49.2109C138.555 49.3281 138.352 49.3867 138.156 49.3867C137.953 49.3867 137.785 49.3477 137.652 49.2695C137.52 49.1914 137.41 49.0977 137.324 48.9883C137.246 48.8711 137.188 48.7461 137.148 48.6133C137.117 48.4727 137.105 48.3438 137.113 48.2266C137.121 48.1328 137.145 48.0352 137.184 47.9336C137.23 47.8242 137.281 47.7148 137.336 47.6055C137.398 47.4883 137.461 47.375 137.523 47.2656C137.594 47.1484 137.656 47.0352 137.711 46.9258C137.844 46.6992 137.949 46.5078 138.027 46.3516C138.113 46.1875 138.156 46.0508 138.156 45.9414C138.156 45.8711 138.141 45.8086 138.109 45.7539C138.078 45.6992 138.027 45.6719 137.957 45.6719C137.91 45.6719 137.875 45.6758 137.852 45.6836C137.836 45.6836 137.816 45.6836 137.793 45.6836C137.777 45.6836 137.75 45.6875 137.711 45.6953C137.68 45.6953 137.629 45.6953 137.559 45.6953C137.457 45.6953 137.371 45.6797 137.301 45.6484C137.23 45.6172 137.164 45.5938 137.102 45.5781C137.07 45.6328 137 45.75 136.891 45.9297C136.781 46.1094 136.652 46.3203 136.504 46.5625C136.363 46.8047 136.211 47.0586 136.047 47.3242C135.891 47.5898 135.742 47.8398 135.602 48.0742C135.461 48.3008 135.344 48.4961 135.25 48.6602C135.148 48.8164 135.086 48.9102 135.062 48.9414ZM144.109 46.7617C144.07 47.0039 144.031 47.2344 143.992 47.4531C143.961 47.6719 143.941 47.8477 143.934 47.9805C143.926 48.1758 143.961 48.3164 144.039 48.4023C144.117 48.4883 144.203 48.5312 144.297 48.5312C144.406 48.5312 144.539 48.4766 144.695 48.3672C144.859 48.2578 145.031 48.1211 145.211 47.957C145.391 47.793 145.57 47.6133 145.75 47.418C145.93 47.2227 146.094 47.0391 146.242 46.8672C146.398 46.6875 146.527 46.5312 146.629 46.3984C146.738 46.2656 146.812 46.1797 146.852 46.1406C146.898 46.0938 146.945 46.0664 146.992 46.0586C147.047 46.0508 147.09 46.0586 147.121 46.082C147.152 46.1055 147.168 46.1484 147.168 46.2109C147.168 46.2734 147.137 46.3516 147.074 46.4453C146.98 46.5938 146.859 46.7695 146.711 46.9727C146.562 47.168 146.398 47.3711 146.219 47.582C146.039 47.793 145.848 48 145.645 48.2031C145.449 48.4062 145.25 48.5859 145.047 48.7422C144.852 48.8984 144.66 49.0234 144.473 49.1172C144.293 49.2188 144.129 49.2695 143.98 49.2695C143.871 49.2695 143.766 49.2383 143.664 49.1758C143.57 49.1133 143.484 49.0312 143.406 48.9297C143.328 48.8281 143.266 48.7148 143.219 48.5898C143.18 48.4648 143.164 48.3398 143.172 48.2148C143.18 48.1602 143.191 48.0664 143.207 47.9336C142.879 48.3008 142.547 48.5938 142.211 48.8125C141.883 49.0234 141.566 49.1289 141.262 49.1289C141.152 49.1289 141.035 49.1016 140.91 49.0469C140.785 48.9922 140.672 48.9023 140.57 48.7773C140.477 48.6523 140.398 48.4883 140.336 48.2852C140.273 48.082 140.25 47.8359 140.266 47.5469C140.289 47.0938 140.379 46.6641 140.535 46.2578C140.691 45.8516 140.887 45.5 141.121 45.2031C141.363 44.8984 141.633 44.6602 141.93 44.4883C142.234 44.3086 142.539 44.2188 142.844 44.2188C142.977 44.2188 143.098 44.2539 143.207 44.3242C143.316 44.3867 143.41 44.4727 143.488 44.582C143.566 44.6836 143.629 44.7969 143.676 44.9219C143.73 45.0469 143.77 45.1641 143.793 45.2734C143.848 45.0469 143.898 44.8242 143.945 44.6055C143.992 44.3867 144.039 44.1797 144.086 43.9844C144.164 43.6953 144.246 43.3828 144.332 43.0469C144.41 42.7578 144.5 42.4258 144.602 42.0508C144.703 41.6758 144.816 41.2812 144.941 40.8672C145.02 40.8047 145.094 40.7578 145.164 40.7266C145.234 40.6953 145.301 40.6719 145.363 40.6562C145.434 40.6328 145.5 40.6211 145.562 40.6211C145.641 40.6211 145.711 40.6328 145.773 40.6562C145.836 40.6719 145.887 40.7227 145.926 40.8086C145.973 40.8867 146.004 41.0078 146.02 41.1719C146.035 41.3359 146.035 41.5586 146.02 41.8398C146.004 42.1836 145.941 42.5586 145.832 42.9648C145.73 43.3711 145.594 43.793 145.422 44.2305C145.25 44.6602 145.051 45.0938 144.824 45.5312C144.605 45.9609 144.367 46.3711 144.109 46.7617ZM143.418 46.9141C143.449 46.7656 143.477 46.6172 143.5 46.4688C143.531 46.3203 143.566 46.168 143.605 46.0117C143.59 46.0195 143.574 46.0273 143.559 46.0352C143.551 46.043 143.539 46.0508 143.523 46.0586C143.438 46.0977 143.379 46.0977 143.348 46.0586C143.316 46.0117 143.301 45.9414 143.301 45.8477C143.301 45.8008 143.297 45.7188 143.289 45.6016C143.281 45.4766 143.258 45.3516 143.219 45.2266C143.188 45.0938 143.137 44.9805 143.066 44.8867C142.996 44.7852 142.898 44.7344 142.773 44.7344C142.594 44.7344 142.41 44.8281 142.223 45.0156C142.035 45.1953 141.859 45.418 141.695 45.6836C141.531 45.9414 141.395 46.2188 141.285 46.5156C141.176 46.8125 141.113 47.0781 141.098 47.3125C141.082 47.6875 141.129 47.957 141.238 48.1211C141.348 48.2852 141.496 48.3672 141.684 48.3672C141.824 48.3672 141.977 48.3125 142.141 48.2031C142.312 48.0938 142.477 47.9609 142.633 47.8047C142.797 47.6484 142.945 47.4883 143.078 47.3242C143.219 47.1602 143.332 47.0234 143.418 46.9141ZM152.195 46.668C152.086 46.8242 151.945 47.0195 151.773 47.2539C151.602 47.4805 151.422 47.7109 151.234 47.9453C151.055 48.1719 150.875 48.3828 150.695 48.5781C150.523 48.7656 150.379 48.8984 150.262 48.9766C150.184 49.0234 150.094 49.0625 149.992 49.0938C149.891 49.125 149.785 49.1445 149.676 49.1523C149.574 49.1602 149.477 49.1523 149.383 49.1289C149.289 49.1133 149.207 49.082 149.137 49.0352C149.066 48.9805 149.008 48.9023 148.961 48.8008C148.922 48.7148 148.883 48.6016 148.844 48.4609C148.812 48.3203 148.801 48.1445 148.809 47.9336C148.621 48.2461 148.414 48.4883 148.188 48.6602C147.961 48.8242 147.746 48.9453 147.543 49.0234C147.309 49.1094 147.074 49.1602 146.84 49.1758C146.73 49.1758 146.613 49.1367 146.488 49.0586C146.363 48.9883 146.258 48.875 146.172 48.7188C146.086 48.5547 146.031 48.3477 146.008 48.0977C145.984 47.8398 146.016 47.5352 146.102 47.1836C146.211 46.707 146.383 46.2734 146.617 45.8828C146.859 45.4922 147.121 45.1602 147.402 44.8867C147.684 44.6055 147.961 44.3945 148.234 44.2539C148.508 44.1133 148.734 44.0508 148.914 44.0664C149.125 44.1055 149.297 44.168 149.43 44.2539C149.539 44.332 149.609 44.4492 149.641 44.6055C149.68 44.7539 149.617 44.9531 149.453 45.2031C149.562 45.1797 149.652 45.1641 149.723 45.1562C149.801 45.1484 149.859 45.1445 149.898 45.1445C149.945 45.1445 149.977 45.1484 149.992 45.1562C150 45.1719 150.004 45.207 150.004 45.2617C150.004 45.3086 149.992 45.3984 149.969 45.5312C149.945 45.6641 149.91 45.8438 149.863 46.0703C149.816 46.2969 149.754 46.5898 149.676 46.9492C149.66 47.0195 149.645 47.0859 149.629 47.1484C149.621 47.2031 149.609 47.2617 149.594 47.3242C149.586 47.3789 149.574 47.4453 149.559 47.5234C149.543 47.6016 149.523 47.6992 149.5 47.8164C149.492 47.8867 149.488 47.9648 149.488 48.0508C149.496 48.1289 149.512 48.2031 149.535 48.2734C149.559 48.3438 149.594 48.4023 149.641 48.4492C149.695 48.4883 149.77 48.5078 149.863 48.5078C149.941 48.5078 150.043 48.4609 150.168 48.3672C150.293 48.2656 150.426 48.1406 150.566 47.9922C150.707 47.8359 150.852 47.668 151 47.4883C151.156 47.3008 151.301 47.1211 151.434 46.9492C151.566 46.7773 151.684 46.625 151.785 46.4922C151.895 46.3594 151.973 46.2617 152.02 46.1992C152.082 46.1289 152.145 46.0898 152.207 46.082C152.27 46.0664 152.316 46.082 152.348 46.1289C152.379 46.1758 152.383 46.2461 152.359 46.3398C152.344 46.4336 152.289 46.543 152.195 46.668ZM148.762 47.1836C148.801 47.0273 148.848 46.8438 148.902 46.6328C148.957 46.4219 149.004 46.2188 149.043 46.0234C149.082 45.8281 149.109 45.668 149.125 45.543C149.148 45.4102 149.145 45.3477 149.113 45.3555C149.074 45.3633 149.031 45.375 148.984 45.3906C148.945 45.4062 148.895 45.418 148.832 45.4258C148.77 45.4336 148.707 45.4453 148.645 45.4609C148.707 45.3359 148.742 45.2344 148.75 45.1562C148.766 45.0703 148.77 45.0039 148.762 44.957C148.754 44.9023 148.738 44.8594 148.715 44.8281C148.629 44.7578 148.477 44.8164 148.258 45.0039C148.047 45.1836 147.801 45.5195 147.52 46.0117C147.402 46.2148 147.309 46.4336 147.238 46.668C147.168 46.8945 147.117 47.1094 147.086 47.3125C147.062 47.5156 147.059 47.6953 147.074 47.8516C147.09 48 147.121 48.0977 147.168 48.1445C147.254 48.2305 147.352 48.2734 147.461 48.2734C147.57 48.2656 147.68 48.2344 147.789 48.1797C147.906 48.1172 148.02 48.0391 148.129 47.9453C148.246 47.8516 148.348 47.7539 148.434 47.6523C148.527 47.5508 148.602 47.457 148.656 47.3711C148.719 47.2852 148.754 47.2227 148.762 47.1836ZM154.094 42.2852C153.977 42.7539 153.844 43.2031 153.695 43.6328C153.555 44.0547 153.406 44.4531 153.25 44.8281C153.102 45.1953 152.949 45.5312 152.793 45.8359C152.645 46.1406 152.512 46.4062 152.395 46.6328C152.316 47.1953 152.316 47.6484 152.395 47.9922C152.473 48.3359 152.625 48.5078 152.852 48.5078C153.039 48.5078 153.223 48.4219 153.402 48.25C153.582 48.0781 153.742 47.8672 153.883 47.6172C154.023 47.3672 154.141 47.1016 154.234 46.8203C154.336 46.5312 154.398 46.2734 154.422 46.0469C154.273 46.0078 154.148 45.9414 154.047 45.8477C153.945 45.7461 153.895 45.6133 153.895 45.4492C153.895 45.3398 153.926 45.2383 153.988 45.1445C154.051 45.043 154.125 44.957 154.211 44.8867C154.297 44.8164 154.391 44.7617 154.492 44.7227C154.594 44.6836 154.688 44.6641 154.773 44.6641C154.906 44.6641 155.02 44.75 155.113 44.9219C155.207 45.0859 155.27 45.2969 155.301 45.5547C155.613 45.5469 155.941 45.5 156.285 45.4141C156.629 45.3281 156.953 45.2188 157.258 45.0859C157.344 45.0469 157.414 45.0352 157.469 45.0508C157.523 45.0664 157.559 45.0977 157.574 45.1445C157.598 45.1914 157.598 45.2461 157.574 45.3086C157.551 45.3633 157.504 45.4062 157.434 45.4375C157.254 45.5391 157.066 45.6328 156.871 45.7188C156.684 45.7969 156.496 45.8633 156.309 45.918C156.121 45.9727 155.941 46.0156 155.77 46.0469C155.598 46.0781 155.441 46.0938 155.301 46.0938C155.27 46.4062 155.172 46.7461 155.008 47.1133C154.844 47.4727 154.645 47.8086 154.41 48.1211C154.176 48.4258 153.914 48.6797 153.625 48.8828C153.344 49.0859 153.066 49.1875 152.793 49.1875C152.707 49.1875 152.594 49.1758 152.453 49.1523C152.312 49.1289 152.176 49.0469 152.043 48.9062C151.91 48.7656 151.797 48.543 151.703 48.2383C151.609 47.9258 151.57 47.4844 151.586 46.9141C151.594 46.5312 151.637 46.125 151.715 45.6953C151.793 45.2656 151.887 44.8359 151.996 44.4062C152.105 43.9766 152.227 43.5625 152.359 43.1641C152.5 42.7578 152.633 42.3945 152.758 42.0742C152.883 41.7461 152.996 41.4727 153.098 41.2539C153.207 41.0352 153.289 40.8945 153.344 40.832C153.414 40.7461 153.496 40.6836 153.59 40.6445C153.684 40.5977 153.773 40.5664 153.859 40.5508C153.953 40.5273 154.039 40.5195 154.117 40.5273C154.195 40.5352 154.25 40.5469 154.281 40.5625C154.328 40.5938 154.34 40.7656 154.316 41.0781C154.301 41.3906 154.227 41.793 154.094 42.2852ZM158.969 42.0977C158.945 42.1836 158.898 42.2695 158.828 42.3555C158.766 42.4336 158.691 42.5 158.605 42.5547C158.527 42.6016 158.445 42.6328 158.359 42.6484C158.273 42.6641 158.203 42.6484 158.148 42.6016C157.984 42.4766 157.898 42.3438 157.891 42.2031C157.883 42.0547 157.918 41.918 157.996 41.793C158.074 41.6602 158.172 41.5508 158.289 41.4648C158.406 41.3711 158.508 41.3164 158.594 41.3008C158.68 41.2852 158.75 41.3047 158.805 41.3594C158.867 41.4062 158.914 41.4727 158.945 41.5586C158.977 41.6367 158.992 41.7266 158.992 41.8281C159 41.9297 158.992 42.0195 158.969 42.0977ZM157.352 44.5938C157.391 44.5469 157.465 44.5078 157.574 44.4766C157.684 44.4453 157.797 44.4219 157.914 44.4062C158.031 44.3828 158.137 44.3711 158.23 44.3711C158.332 44.3633 158.391 44.3633 158.406 44.3711C158.414 44.3789 158.395 44.4609 158.348 44.6172C158.301 44.7734 158.242 44.957 158.172 45.168C158.102 45.3789 158.027 45.5977 157.949 45.8242C157.871 46.043 157.812 46.2227 157.773 46.3633C157.734 46.5039 157.688 46.6641 157.633 46.8438C157.578 47.0156 157.527 47.1875 157.48 47.3594C157.441 47.5234 157.414 47.6797 157.398 47.8281C157.383 47.9766 157.395 48.0898 157.434 48.168C157.473 48.2617 157.516 48.3281 157.562 48.3672C157.609 48.3984 157.66 48.4141 157.715 48.4141C157.871 48.4141 158.066 48.3281 158.301 48.1562C158.543 47.9844 158.785 47.7812 159.027 47.5469C159.277 47.3047 159.508 47.0625 159.719 46.8203C159.93 46.5703 160.086 46.3711 160.188 46.2227C160.25 46.1445 160.312 46.0938 160.375 46.0703C160.445 46.0469 160.5 46.0508 160.539 46.082C160.586 46.1133 160.609 46.1641 160.609 46.2344C160.617 46.3047 160.594 46.3867 160.539 46.4805C160.414 46.6992 160.23 46.9609 159.988 47.2656C159.746 47.5625 159.488 47.8516 159.215 48.1328C158.941 48.4062 158.672 48.6406 158.406 48.8359C158.148 49.0312 157.938 49.1328 157.773 49.1406C157.641 49.1484 157.508 49.125 157.375 49.0703C157.25 49.0234 157.133 48.957 157.023 48.8711C156.922 48.7773 156.836 48.6719 156.766 48.5547C156.695 48.4297 156.656 48.3008 156.648 48.168C156.625 47.9727 156.625 47.707 156.648 47.3711C156.672 47.0273 156.715 46.6797 156.777 46.3281C156.84 45.9688 156.918 45.6289 157.012 45.3086C157.113 44.9883 157.227 44.75 157.352 44.5938ZM159.508 48.8125C159.852 47.3672 160.125 46.207 160.328 45.332C160.539 44.457 160.699 43.7891 160.809 43.3281C160.934 42.7812 161.02 42.4023 161.066 42.1914C161.09 42.043 161.109 41.8984 161.125 41.7578C161.141 41.6328 161.148 41.5039 161.148 41.3711C161.148 41.2383 161.137 41.1172 161.113 41.0078C161.176 40.9688 161.242 40.9375 161.312 40.9141C161.391 40.8906 161.465 40.8711 161.535 40.8555C161.621 40.832 161.707 40.8125 161.793 40.7969C161.879 40.7812 161.957 40.7734 162.027 40.7734C162.09 40.7734 162.148 40.7812 162.203 40.7969C162.258 40.8047 162.293 40.8281 162.309 40.8672C162.355 40.9062 162.375 40.9844 162.367 41.1016C162.367 41.2188 162.359 41.3398 162.344 41.4648C162.312 41.6133 162.277 41.7734 162.238 41.9453C162.145 42.2812 162.016 42.7656 161.852 43.3984C161.711 43.9375 161.52 44.6719 161.277 45.6016C161.043 46.5312 160.746 47.7031 160.387 49.1172C160.348 49.1562 160.301 49.1836 160.246 49.1992C160.191 49.2148 160.141 49.2227 160.094 49.2227C160.039 49.2227 159.98 49.2188 159.918 49.2109C159.863 49.1953 159.809 49.1719 159.754 49.1406C159.707 49.1094 159.66 49.0664 159.613 49.0117C159.566 48.9648 159.531 48.8984 159.508 48.8125ZM164.887 42.0977C164.863 42.1836 164.816 42.2695 164.746 42.3555C164.684 42.4336 164.609 42.5 164.523 42.5547C164.445 42.6016 164.363 42.6328 164.277 42.6484C164.191 42.6641 164.121 42.6484 164.066 42.6016C163.902 42.4766 163.816 42.3438 163.809 42.2031C163.801 42.0547 163.836 41.918 163.914 41.793C163.992 41.6602 164.09 41.5508 164.207 41.4648C164.324 41.3711 164.426 41.3164 164.512 41.3008C164.598 41.2852 164.668 41.3047 164.723 41.3594C164.785 41.4062 164.832 41.4727 164.863 41.5586C164.895 41.6367 164.91 41.7266 164.91 41.8281C164.918 41.9297 164.91 42.0195 164.887 42.0977ZM163.27 44.5938C163.309 44.5469 163.383 44.5078 163.492 44.4766C163.602 44.4453 163.715 44.4219 163.832 44.4062C163.949 44.3828 164.055 44.3711 164.148 44.3711C164.25 44.3633 164.309 44.3633 164.324 44.3711C164.332 44.3789 164.312 44.4609 164.266 44.6172C164.219 44.7734 164.16 44.957 164.09 45.168C164.02 45.3789 163.945 45.5977 163.867 45.8242C163.789 46.043 163.73 46.2227 163.691 46.3633C163.652 46.5039 163.605 46.6641 163.551 46.8438C163.496 47.0156 163.445 47.1875 163.398 47.3594C163.359 47.5234 163.332 47.6797 163.316 47.8281C163.301 47.9766 163.312 48.0898 163.352 48.168C163.391 48.2617 163.434 48.3281 163.48 48.3672C163.527 48.3984 163.578 48.4141 163.633 48.4141C163.789 48.4141 163.984 48.3281 164.219 48.1562C164.461 47.9844 164.703 47.7812 164.945 47.5469C165.195 47.3047 165.426 47.0625 165.637 46.8203C165.848 46.5703 166.004 46.3711 166.105 46.2227C166.168 46.1445 166.23 46.0938 166.293 46.0703C166.363 46.0469 166.418 46.0508 166.457 46.082C166.504 46.1133 166.527 46.1641 166.527 46.2344C166.535 46.3047 166.512 46.3867 166.457 46.4805C166.332 46.6992 166.148 46.9609 165.906 47.2656C165.664 47.5625 165.406 47.8516 165.133 48.1328C164.859 48.4062 164.59 48.6406 164.324 48.8359C164.066 49.0312 163.855 49.1328 163.691 49.1406C163.559 49.1484 163.426 49.125 163.293 49.0703C163.168 49.0234 163.051 48.957 162.941 48.8711C162.84 48.7773 162.754 48.6719 162.684 48.5547C162.613 48.4297 162.574 48.3008 162.566 48.168C162.543 47.9727 162.543 47.707 162.566 47.3711C162.59 47.0273 162.633 46.6797 162.695 46.3281C162.758 45.9688 162.836 45.6289 162.93 45.3086C163.031 44.9883 163.145 44.75 163.27 44.5938ZM169.926 46.0352C169.957 45.9883 169.996 45.9609 170.043 45.9531C170.098 45.9375 170.141 45.9414 170.172 45.9648C170.203 45.9883 170.219 46.0273 170.219 46.082C170.227 46.1367 170.207 46.2109 170.16 46.3047C170.004 46.6016 169.797 46.9219 169.539 47.2656C169.289 47.6094 169.023 47.9336 168.742 48.2383C168.461 48.5352 168.188 48.7812 167.922 48.9766C167.656 49.1719 167.434 49.2695 167.254 49.2695C166.996 49.2695 166.781 49.2188 166.609 49.1172C166.438 49.0156 166.301 48.8906 166.199 48.7422C166.105 48.5938 166.039 48.4336 166 48.2617C165.961 48.082 165.949 47.918 165.965 47.7695C165.973 47.6445 166 47.4219 166.047 47.1016C166.094 46.7734 166.156 46.3984 166.234 45.9766C166.312 45.5469 166.398 45.0898 166.492 44.6055C166.594 44.1133 166.699 43.6406 166.809 43.1875C166.676 43.2031 166.543 43.2188 166.41 43.2344C166.277 43.25 166.156 43.2578 166.047 43.2578C165.797 43.2578 165.562 43.2305 165.344 43.1758C165.117 43.1133 164.949 43.0547 164.84 43C164.777 42.9688 164.75 42.9258 164.758 42.8711C164.766 42.8086 164.789 42.75 164.828 42.6953C164.867 42.6328 164.918 42.582 164.98 42.543C165.035 42.4961 165.086 42.4727 165.133 42.4727C165.281 42.4883 165.441 42.5039 165.613 42.5195C165.785 42.5273 165.973 42.5273 166.176 42.5195C166.324 42.5117 166.465 42.5 166.598 42.4844C166.738 42.4688 166.875 42.4492 167.008 42.4258C167.109 42.0508 167.207 41.7266 167.301 41.4531C167.402 41.1719 167.492 40.9766 167.57 40.8672C167.594 40.8281 167.645 40.7969 167.723 40.7734C167.809 40.7422 167.898 40.7227 167.992 40.7148C168.086 40.6992 168.176 40.6992 168.262 40.7148C168.348 40.7227 168.41 40.75 168.449 40.7969C168.488 40.8594 168.504 41.0195 168.496 41.2773C168.488 41.5352 168.445 41.8633 168.367 42.2617C168.695 42.2617 168.984 42.2812 169.234 42.3203C169.492 42.3516 169.711 42.3906 169.891 42.4375C170.07 42.4766 170.215 42.5195 170.324 42.5664C170.434 42.6055 170.516 42.6328 170.57 42.6484C170.625 42.6641 170.652 42.7031 170.652 42.7656C170.66 42.8281 170.648 42.8945 170.617 42.9648C170.594 43.0273 170.551 43.082 170.488 43.1289C170.426 43.1758 170.355 43.1914 170.277 43.1758C170.199 43.168 170.109 43.1523 170.008 43.1289C169.914 43.1055 169.797 43.0859 169.656 43.0703C169.523 43.0547 169.363 43.0391 169.176 43.0234C168.988 43.0078 168.77 43 168.52 43C168.473 43 168.418 43.0039 168.355 43.0117C168.301 43.0117 168.242 43.0117 168.18 43.0117C168.148 43.1367 168.117 43.2617 168.086 43.3867C168.062 43.5039 168.027 43.6289 167.98 43.7617C167.879 44.0742 167.762 44.4141 167.629 44.7812C167.512 45.1016 167.371 45.4688 167.207 45.8828C167.043 46.2969 166.859 46.7383 166.656 47.207C166.609 47.543 166.613 47.8008 166.668 47.9805C166.73 48.1523 166.805 48.2773 166.891 48.3555C166.992 48.4414 167.117 48.4883 167.266 48.4961C167.383 48.5117 167.523 48.4727 167.688 48.3789C167.859 48.2773 168.035 48.1445 168.215 47.9805C168.395 47.8164 168.574 47.6367 168.754 47.4414C168.941 47.2461 169.113 47.0547 169.27 46.8672C169.426 46.6797 169.562 46.5117 169.68 46.3633C169.797 46.207 169.879 46.0977 169.926 46.0352ZM172.305 44.6875C172.406 44.6094 172.504 44.5508 172.598 44.5117C172.699 44.4648 172.789 44.4336 172.867 44.418C172.953 44.3945 173.039 44.3867 173.125 44.3945C173.336 44.4102 173.465 44.4766 173.512 44.5938C173.566 44.7109 173.574 44.8984 173.535 45.1562C173.512 45.2891 173.465 45.457 173.395 45.6602C173.324 45.8633 173.242 46.1133 173.148 46.4102C173.055 46.6992 172.953 47.0312 172.844 47.4062C172.742 47.7812 172.645 48.2031 172.551 48.6719C172.457 49.0547 172.355 49.4961 172.246 49.9961C172.152 50.4336 172.039 50.9609 171.906 51.5781C171.781 52.1953 171.645 52.9023 171.496 53.6992C171.457 53.8945 171.371 54.0078 171.238 54.0391C171.113 54.0703 170.98 54.0547 170.84 53.9922C170.785 53.9609 170.734 53.9258 170.688 53.8867C170.648 53.8477 170.605 53.8008 170.559 53.7461C170.512 53.6992 170.473 53.6328 170.441 53.5469C170.621 52.8906 170.777 52.293 170.91 51.7539C171.051 51.2148 171.176 50.7461 171.285 50.3477C171.402 49.8867 171.512 49.4727 171.613 49.1055C171.652 48.9414 171.688 48.7812 171.719 48.625C171.758 48.4609 171.797 48.3008 171.836 48.1445C171.734 48.3086 171.625 48.4648 171.508 48.6133C171.391 48.7617 171.262 48.8906 171.121 49C170.98 49.1094 170.828 49.1914 170.664 49.2461C170.508 49.3086 170.344 49.3281 170.172 49.3047C169.75 49.25 169.449 49.0938 169.27 48.8359C169.098 48.5781 169.023 48.2422 169.047 47.8281C169.055 47.6641 169.078 47.4844 169.117 47.2891C169.156 47.0938 169.199 46.9062 169.246 46.7266C169.293 46.5469 169.336 46.3867 169.375 46.2461C169.422 46.0977 169.457 45.9922 169.48 45.9297C169.574 45.6328 169.641 45.3789 169.68 45.168C169.727 44.957 169.695 44.7812 169.586 44.6406C169.695 44.5703 169.797 44.5234 169.891 44.5C169.992 44.4688 170.082 44.4453 170.16 44.4297C170.246 44.4219 170.332 44.4219 170.418 44.4297C170.629 44.4609 170.75 44.5391 170.781 44.6641C170.82 44.7891 170.809 44.9766 170.746 45.2266C170.715 45.3594 170.664 45.5312 170.594 45.7422C170.523 45.9453 170.449 46.1562 170.371 46.375C170.293 46.5938 170.223 46.7969 170.16 46.9844C170.098 47.1641 170.062 47.293 170.055 47.3711C169.984 47.7227 169.98 47.9961 170.043 48.1914C170.105 48.3789 170.242 48.4727 170.453 48.4727C170.555 48.4727 170.668 48.4297 170.793 48.3438C170.918 48.25 171.043 48.1289 171.168 47.9805C171.301 47.832 171.43 47.6641 171.555 47.4766C171.68 47.2812 171.793 47.0859 171.895 46.8906C172.004 46.6953 172.098 46.5039 172.176 46.3164C172.262 46.1289 172.324 45.9609 172.363 45.8125C172.418 45.5234 172.453 45.2969 172.469 45.1328C172.484 44.9688 172.43 44.8203 172.305 44.6875Z" fill="black"/>
<path fill-rule="evenodd" clip-rule="evenodd" d="M119.5 0H3H0V3V45V48H3H20.5V45H3V3H119.5V0Z" fill="black"/>
<path fill-rule="evenodd" clip-rule="evenodd" d="M119.5 0H236H239V3V45V48H236H218.5V45H236V3H119.5V0Z" fill="#8A060A"/>
</svg>
